<svg width="100%" height="100%" id="svg" viewBox="0 0 1440 390" xmlns="http://www.w3.org/2000/svg" class="transition duration-300 ease-in-out delay-150"><defs><linearGradient id="gradient" x1="0%" y1="50%" x2="100%" y2="50%"><stop offset="5%" stop-color="#c19a6b"></stop><stop offset="95%" stop-color="#abb8c3"></stop></linearGradient></defs><path d="M 0,400 L 0,100 C 163.33333333333331,86.80000000000001 326.66666666666663,73.60000000000001 496,80 C 665.3333333333334,86.39999999999999 840.6666666666667,112.4 999,119 C 1157.3333333333333,125.6 1298.6666666666665,112.8 1440,100 L 1440,400 L 0,400 Z" stroke="none" stroke-width="0" fill="url(#gradient)" fill-opacity="0.53" class="transition-all duration-300 ease-in-out delay-150 path-0"></path><defs><linearGradient id="gradient" x1="0%" y1="50%" x2="100%" y2="50%"><stop offset="5%" stop-color="#c19a6b"></stop><stop offset="95%" stop-color="#abb8c3"></stop></linearGradient></defs><path d="M 0,400 L 0,233 C 135.59999999999997,236.86666666666667 271.19999999999993,240.73333333333332 436,231 C 600.8000000000001,221.26666666666668 794.8,197.93333333333337 967,196 C 1139.2,194.06666666666663 1289.6,213.5333333333333 1440,233 L 1440,400 L 0,400 Z" stroke="none" stroke-width="0" fill="url(#gradient)" fill-opacity="1" class="transition-all duration-300 ease-in-out delay-150 path-1"></path></svg>
