<svg width="100%" height="100%" id="svg" viewBox="0 0 1440 590" xmlns="http://www.w3.org/2000/svg" class="transition duration-300 ease-in-out delay-150"><defs><linearGradient id="gradient" x1="0%" y1="50%" x2="100%" y2="50%"><stop offset="5%" stop-color="#c19a6b"></stop><stop offset="95%" stop-color="#abb8c3"></stop></linearGradient></defs><path d="M 0,600 L 0,150 C 93.05263157894737,126.45933014354067 186.10526315789474,102.91866028708134 292,91 C 397.89473684210526,79.08133971291866 516.6315789473684,78.78468899521532 618,83 C 719.3684210526316,87.21531100478468 803.3684210526316,95.94258373205743 884,110 C 964.6315789473684,124.05741626794257 1041.8947368421052,143.444976076555 1134,151 C 1226.1052631578948,158.555023923445 1333.0526315789475,154.2775119617225 1440,150 L 1440,600 L 0,600 Z" stroke="none" stroke-width="0" fill="url(#gradient)" fill-opacity="0.53" class="transition-all duration-300 ease-in-out delay-150 path-0"></path><defs><linearGradient id="gradient" x1="0%" y1="50%" x2="100%" y2="50%"><stop offset="5%" stop-color="#c19a6b"></stop><stop offset="95%" stop-color="#abb8c3"></stop></linearGradient></defs><path d="M 0,600 L 0,350 C 75.45454545454544,370.96650717703346 150.90909090909088,391.933014354067 242,401 C 333.0909090909091,410.066985645933 439.81818181818187,407.23444976076553 553,385 C 666.1818181818181,362.76555023923447 785.8181818181819,321.12918660287085 874,326 C 962.1818181818181,330.87081339712915 1018.909090909091,382.24880382775115 1108,394 C 1197.090909090909,405.75119617224885 1318.5454545454545,377.87559808612446 1440,350 L 1440,600 L 0,600 Z" stroke="none" stroke-width="0" fill="url(#gradient)" fill-opacity="1" class="transition-all duration-300 ease-in-out delay-150 path-1"></path></svg>
